<svg width="73" height="68" viewBox="0 0 73 68" fill="none" xmlns="http://www.w3.org/2000/svg">
<path d="M57.0312 20.0919V10.625C57.0312 9.49783 56.5506 8.41683 55.6949 7.6198C54.8393 6.82277 53.6788 6.375 52.4688 6.375H20.5312C19.3212 6.375 18.1607 6.82277 17.3051 7.6198C16.4494 8.41683 15.9688 9.49783 15.9688 10.625V20.1875C15.9703 20.847 16.1359 21.4973 16.4525 22.0872C16.7692 22.6771 17.2282 23.1906 17.7938 23.5875L32.6989 34L17.7938 44.4125C17.2282 44.8094 16.7692 45.3229 16.4525 45.9128C16.1359 46.5027 15.9703 47.153 15.9688 47.8125V57.375C15.9688 58.5022 16.4494 59.5832 17.3051 60.3802C18.1607 61.1772 19.3212 61.625 20.5312 61.625H52.4688C53.6788 61.625 54.8393 61.1772 55.6949 60.3802C56.5506 59.5832 57.0312 58.5022 57.0312 57.375V47.9081C57.0296 47.2511 56.8654 46.6033 56.5514 46.015C56.2373 45.4267 55.7819 44.9138 55.2205 44.5161L40.284 34L55.2205 23.4813C55.7822 23.0844 56.2378 22.572 56.5519 21.9841C56.866 21.3961 57.0301 20.7486 57.0312 20.0919ZM20.5312 10.625H52.4688V20.0919L50.8234 21.25H22.0511L20.5312 20.1875V10.625ZM36.5 31.3438L28.1364 25.5H44.7895L36.5 31.3438ZM52.4688 57.375H20.5312V47.8125L34.2188 38.25V44.625C34.2188 45.1886 34.4591 45.7291 34.8869 46.1276C35.3147 46.5261 35.895 46.75 36.5 46.75C37.105 46.75 37.6853 46.5261 38.1131 46.1276C38.5409 45.7291 38.7812 45.1886 38.7812 44.625V38.2712L52.4688 47.9081V57.375Z" fill="white"/>
</svg>
