<svg width="69" height="75" viewBox="0 0 69 75" fill="none" xmlns="http://www.w3.org/2000/svg">
<path d="M53.3942 18.3369C51.8344 14.2888 49.2087 10.832 45.8471 8.40089C42.4854 5.96977 38.5378 4.67273 34.5001 4.67273C30.4623 4.67273 26.5147 5.96977 23.153 8.40089C19.7914 10.832 17.1657 14.2888 15.6059 18.3369C12.2373 20.0104 9.38207 22.7008 7.37993 26.0877C5.37779 29.4746 4.31309 33.4155 4.31256 37.4414C4.28561 48.6328 12.9376 58.3008 23.2175 58.5937C26.3794 58.6767 29.5122 57.9194 32.3438 56.3877V67.9687C32.3438 68.5903 32.571 69.1865 32.9754 69.626C33.3797 70.0656 33.9282 70.3125 34.5001 70.3125C35.0719 70.3125 35.6204 70.0656 36.0248 69.626C36.4291 69.1865 36.6563 68.5903 36.6563 67.9687V56.3877C39.3369 57.8344 42.2885 58.5894 45.2813 58.5937H45.7719C56.0626 58.3008 64.7172 48.6328 64.6876 37.4414C64.687 33.4155 63.6223 29.4746 61.6202 26.0877C59.6181 22.7008 56.7628 20.0104 53.3942 18.3369ZM45.6721 53.9062C42.4566 53.9973 39.2982 52.9709 36.6563 50.9765V38.9648L48.4025 32.584C48.6559 32.4462 48.8819 32.2556 49.0676 32.0229C49.2532 31.7902 49.3949 31.5201 49.4845 31.2279C49.5741 30.9358 49.6099 30.6273 49.5898 30.32C49.5697 30.0128 49.4941 29.7129 49.3674 29.4375C49.2407 29.162 49.0653 28.9164 48.8512 28.7146C48.6372 28.5128 48.3887 28.3588 48.1199 28.2614C47.8511 28.164 47.5672 28.1251 47.2846 28.147C47.002 28.1688 46.7261 28.2509 46.4726 28.3886L36.6563 33.709V25.7812C36.6563 25.1596 36.4291 24.5635 36.0248 24.1239C35.6204 23.6844 35.0719 23.4375 34.5001 23.4375C33.9282 23.4375 33.3797 23.6844 32.9754 24.1239C32.571 24.5635 32.3438 25.1596 32.3438 25.7812V40.7402L22.5275 35.4023C22.0157 35.1242 21.4231 35.0784 20.8803 35.2751C20.3374 35.4718 19.8886 35.8948 19.6327 36.4511C19.3768 37.0075 19.3347 37.6515 19.5157 38.2416C19.6966 38.8317 20.0858 39.3195 20.5976 39.5976L32.3438 45.9785V50.959C29.7025 52.9549 26.5437 53.9813 23.328 53.8886C15.3364 53.6806 8.6035 46.1484 8.62506 37.4531C8.62302 34.1829 9.52382 30.9873 11.2109 28.2797C12.898 25.5721 15.2938 23.477 18.0883 22.2656C18.3686 22.1432 18.6222 21.9582 18.8325 21.7225C19.0429 21.4868 19.2053 21.2057 19.3093 20.8974C20.4467 17.5119 22.514 14.5881 25.2312 12.5224C27.9484 10.4566 31.1842 9.34871 34.5001 9.34871C37.816 9.34871 41.0517 10.4566 43.7689 12.5224C46.4861 14.5881 48.5535 17.5119 49.6908 20.8974C49.7948 21.2057 49.9573 21.4868 50.1676 21.7225C50.3779 21.9582 50.6315 22.1432 50.9118 22.2656C53.7059 23.4777 56.1013 25.5729 57.7883 28.2804C59.4753 30.9879 60.3764 34.1831 60.3751 37.4531C60.3966 46.1484 53.6637 53.6806 45.6721 53.9062Z" fill="white"/>
</svg>
