<svg width="67" height="62" viewBox="0 0 67 62" fill="none" xmlns="http://www.w3.org/2000/svg">
<path d="M39.7812 23.25H27.2188C26.6635 23.25 26.1309 23.4541 25.7382 23.8175C25.3456 24.1808 25.125 24.6736 25.125 25.1875V36.8125C25.125 37.3264 25.3456 37.8192 25.7382 38.1825C26.1309 38.5459 26.6635 38.75 27.2188 38.75H39.7812C40.3365 38.75 40.8691 38.5459 41.2618 38.1825C41.6544 37.8192 41.875 37.3264 41.875 36.8125V25.1875C41.875 24.6736 41.6544 24.1808 41.2618 23.8175C40.8691 23.4541 40.3365 23.25 39.7812 23.25ZM37.6875 34.875H29.3125V27.125H37.6875V34.875ZM60.7188 34.875H56.5312V27.125H60.7188C61.274 27.125 61.8066 26.9209 62.1993 26.5575C62.5919 26.1942 62.8125 25.7014 62.8125 25.1875C62.8125 24.6736 62.5919 24.1808 62.1993 23.8175C61.8066 23.4541 61.274 23.25 60.7188 23.25H56.5312V13.5625C56.5312 12.5348 56.0901 11.5492 55.3048 10.8225C54.5195 10.0958 53.4543 9.6875 52.3438 9.6875H41.875V5.8125C41.875 5.29864 41.6544 4.80583 41.2618 4.44248C40.8691 4.07913 40.3365 3.875 39.7812 3.875C39.226 3.875 38.6934 4.07913 38.3007 4.44248C37.9081 4.80583 37.6875 5.29864 37.6875 5.8125V9.6875H29.3125V5.8125C29.3125 5.29864 29.0919 4.80583 28.6993 4.44248C28.3066 4.07913 27.774 3.875 27.2188 3.875C26.6635 3.875 26.1309 4.07913 25.7382 4.44248C25.3456 4.80583 25.125 5.29864 25.125 5.8125V9.6875H14.6562C13.5457 9.6875 12.4805 10.0958 11.6952 10.8225C10.9099 11.5492 10.4688 12.5348 10.4688 13.5625V23.25H6.28125C5.72595 23.25 5.1934 23.4541 4.80075 23.8175C4.40809 24.1808 4.1875 24.6736 4.1875 25.1875C4.1875 25.7014 4.40809 26.1942 4.80075 26.5575C5.1934 26.9209 5.72595 27.125 6.28125 27.125H10.4688V34.875H6.28125C5.72595 34.875 5.1934 35.0791 4.80075 35.4425C4.40809 35.8058 4.1875 36.2986 4.1875 36.8125C4.1875 37.3264 4.40809 37.8192 4.80075 38.1825C5.1934 38.5459 5.72595 38.75 6.28125 38.75H10.4688V48.4375C10.4688 49.4652 10.9099 50.4508 11.6952 51.1775C12.4805 51.9042 13.5457 52.3125 14.6562 52.3125H25.125V56.1875C25.125 56.7014 25.3456 57.1942 25.7382 57.5575C26.1309 57.9209 26.6635 58.125 27.2188 58.125C27.774 58.125 28.3066 57.9209 28.6993 57.5575C29.0919 57.1942 29.3125 56.7014 29.3125 56.1875V52.3125H37.6875V56.1875C37.6875 56.7014 37.9081 57.1942 38.3007 57.5575C38.6934 57.9209 39.226 58.125 39.7812 58.125C40.3365 58.125 40.8691 57.9209 41.2618 57.5575C41.6544 57.1942 41.875 56.7014 41.875 56.1875V52.3125H52.3438C53.4543 52.3125 54.5195 51.9042 55.3048 51.1775C56.0901 50.4508 56.5312 49.4652 56.5312 48.4375V38.75H60.7188C61.274 38.75 61.8066 38.5459 62.1993 38.1825C62.5919 37.8192 62.8125 37.3264 62.8125 36.8125C62.8125 36.2986 62.5919 35.8058 62.1993 35.4425C61.8066 35.0791 61.274 34.875 60.7188 34.875ZM52.3438 48.4375H14.6562V13.5625H52.3438V36.781C52.3438 36.781 52.3438 36.8028 52.3438 36.8125C52.3438 36.8222 52.3438 36.8343 52.3438 36.844V48.4375Z" fill="white"/>
</svg>
