<svg width="80" height="73" viewBox="0 0 80 73" fill="none" xmlns="http://www.w3.org/2000/svg">
<path d="M40 6.84375C33.5721 6.84375 27.2886 8.58306 21.944 11.8417C16.5994 15.1004 12.4338 19.7321 9.97393 25.151C7.51408 30.57 6.87047 36.5329 8.12449 42.2856C9.37851 48.0384 12.4738 53.3226 17.019 57.4701C21.5643 61.6176 27.3552 64.4421 33.6596 65.5864C39.964 66.7307 46.4986 66.1434 52.4372 63.8988C58.3758 61.6542 63.4516 57.8531 67.0228 52.9761C70.5939 48.0992 72.5 42.3655 72.5 36.5C72.4909 28.6372 69.0639 21.0989 62.9709 15.539C56.878 9.97921 48.6168 6.85205 40 6.84375ZM40 11.4062C45.328 11.4011 50.5416 12.8164 55 15.4783V21.1016L48.0719 28.4415L38.2375 29.6562L38.1406 29.5935L31.9938 25.9264C31.4488 25.5761 30.8325 25.3288 30.1813 25.199C29.53 25.0692 28.8569 25.0595 28.2015 25.1706C27.5461 25.2816 26.9216 25.5112 26.3648 25.8457C25.8081 26.1802 25.3302 26.6129 24.9594 27.1184L18.4156 36.0438C17.8705 36.7875 17.5771 37.6612 17.5719 38.556L17.5 48.8872L16.4781 49.5003C13.9519 45.6944 12.5801 41.344 12.5034 36.8951C12.4266 32.4461 13.6476 28.0584 16.0413 24.1819C18.4349 20.3053 21.9151 17.0793 26.1252 14.8343C30.3353 12.5893 35.1238 11.4062 40 11.4062ZM19.4656 53.1731L20.2531 52.7026C20.9408 52.2887 21.5057 51.7261 21.8977 51.065C22.2897 50.4038 22.4966 49.6646 22.5 48.9128L22.5656 38.5816L29.1156 29.6562C29.1477 29.6788 29.1811 29.6997 29.2156 29.719L35.3625 33.3889C36.3926 34.0524 37.6602 34.3346 38.9094 34.1788L48.75 32.9612C49.9635 32.8134 51.0755 32.2645 51.875 31.4185L58.8031 24.0729C59.5779 23.2445 60.0025 22.1906 60 21.1016V19.2965C63.3815 22.561 65.739 26.5949 66.8259 30.9759C67.9128 35.357 67.6891 39.9241 66.1781 44.1992L61.1344 39.9903C60.4332 39.403 59.5629 39.0105 58.6257 38.859C57.6885 38.7075 56.7234 38.8032 55.8438 39.1348L46.325 42.7421C45.5291 43.0469 44.8326 43.5337 44.3028 44.1555C43.773 44.7774 43.4276 45.5133 43.3 46.2923L42.5531 50.9089C42.3736 52.0202 42.6496 53.1528 43.3283 54.0898C44.007 55.0269 45.0406 55.7026 46.2313 55.9876L52.9375 57.6016L53.675 58.2774C48.1988 61.1445 41.8071 62.2023 35.5763 61.2726C29.3454 60.3429 23.6559 57.4825 19.4656 53.1731ZM57.8125 55.6055L56.4688 54.3764C55.8419 53.8023 55.0589 53.3909 54.2 53.1845L47.5 51.5705L48.2469 46.9538L57.7625 43.3438L64.0625 48.6134C62.4568 51.268 60.3396 53.6366 57.8125 55.6055Z" fill="white"/>
</svg>
