<svg width="49" height="57" viewBox="0 0 49 57" fill="none" xmlns="http://www.w3.org/2000/svg">
<path d="M37.1641 10.0922C33.7383 6.47007 29.8825 3.20843 25.6682 0.367594C25.2951 0.128341 24.8506 0 24.3952 0C23.9397 0 23.4952 0.128341 23.1221 0.367594C18.9155 3.20962 15.0673 6.47121 11.6484 10.0922C4.02426 18.108 0 26.558 0 34.5307C0 40.4566 2.57137 46.1398 7.14843 50.3301C11.7255 54.5204 17.9333 56.8744 24.4062 56.8744C30.8792 56.8744 37.087 54.5204 41.6641 50.3301C46.2411 46.1398 48.8125 40.4566 48.8125 34.5307C48.8125 26.558 44.7882 18.108 37.1641 10.0922ZM40.9997 44.6869H7.81277C6.8916 43.4225 6.14627 42.0578 5.59402 40.6244H43.2296C42.6738 42.0583 41.9248 43.423 40.9997 44.6869ZM44.375 34.5307C44.3745 35.2094 44.3319 35.8876 44.2474 36.5619H4.56508C4.48056 35.8876 4.43797 35.2094 4.4375 34.5307C4.4375 33.8536 4.47078 33.1765 4.53734 32.4994H44.2752C44.3417 33.1765 44.375 33.8536 44.375 34.5307ZM24.4062 4.56974C28.3334 7.3881 40.176 16.6912 43.4986 28.4369H5.31391C8.63648 16.6963 20.4791 7.39318 24.4062 4.56974ZM11.8731 48.7494H36.9394C33.3932 51.3777 28.9689 52.8117 24.4062 52.8117C19.8436 52.8117 15.4193 51.3777 11.8731 48.7494Z" fill="white"/>
</svg>
