<svg width="72" height="66" viewBox="0 0 72 66" fill="none" xmlns="http://www.w3.org/2000/svg">
<path d="M56.25 37.1249H34.6781L35.3391 36.5191L40.9809 31.3474C43.2596 32.3993 45.7704 32.9601 48.3215 32.9871C50.8894 32.9933 53.4093 32.3491 55.6031 31.1257C62.2744 27.4235 65.849 18.8538 65.1656 8.20096C65.1335 7.69638 64.9003 7.22019 64.5104 6.8628C64.1205 6.5054 63.6011 6.29168 63.0506 6.26221C51.4294 5.63831 42.0806 8.91252 38.0419 15.0278C35.4094 19.011 35.3419 23.8218 37.7972 28.4341L33.75 32.144L30.3159 28.9961C32.0034 25.5801 31.8825 22.0352 29.925 19.0755C26.8678 14.4374 19.8591 11.965 11.1741 12.4317C10.6246 12.4617 10.1061 12.6753 9.71689 13.0321C9.32765 13.3889 9.09461 13.8641 9.06186 14.3678C8.54999 22.3265 11.25 28.7512 16.3125 31.5562C18.0062 32.5042 19.9531 33.0039 21.9375 32.9999C23.7378 32.9836 25.5136 32.6153 27.1462 31.9197L30.5662 35.0624L28.3162 37.1249H15.75C15.1533 37.1249 14.581 37.3422 14.159 37.729C13.737 38.1158 13.5 38.6404 13.5 39.1874C13.5 39.7345 13.737 40.2591 14.159 40.6459C14.581 41.0326 15.1533 41.2499 15.75 41.2499H18.4472L22.1625 56.5821C22.3803 57.5003 22.9354 58.3222 23.7351 58.9103C24.5348 59.4983 25.5305 59.8168 26.5556 59.8124H45.4472C46.4723 59.8168 47.468 59.4983 48.2677 58.9103C49.0674 58.3222 49.6225 57.5003 49.8403 56.5821L53.5556 41.2499H56.25C56.8467 41.2499 57.419 41.0326 57.841 40.6459C58.2629 40.2591 58.5 39.7345 58.5 39.1874C58.5 38.6404 58.2629 38.1158 57.841 37.729C57.419 37.3422 56.8467 37.1249 56.25 37.1249ZM41.9062 17.1651C44.8481 12.7153 51.8175 10.2042 60.75 10.315C60.8653 18.516 58.1315 24.9021 53.2772 27.5885C50.04 29.3932 46.1334 29.2746 42.2297 27.2842C40.0556 23.7187 39.9375 20.1325 41.9062 17.1651ZM25.9059 27.8721C23.3184 29.1431 20.7562 29.2024 18.6412 28.0267C15.4069 26.2298 13.5422 21.9939 13.5 16.4999C19.4934 16.5386 24.1172 18.2479 26.0747 21.2128C27.3572 23.1515 27.2812 25.5002 25.9059 27.8721ZM45.4472 55.6874H26.5556L23.0625 41.2499H48.9375L45.4472 55.6874Z" fill="white"/>
</svg>
